<svg width="25" height="33" viewBox="0 0 25 33" fill="none" xmlns="http://www.w3.org/2000/svg">
<path fill-rule="evenodd" clip-rule="evenodd" d="M18.9495 5.37832V17.9276L23.0209 21.4701V14.3662V8.59734V6.86621L22.5589 5.61284C22.5234 5.53398 22.4867 5.45581 22.449 5.37832H18.9495Z" fill="#05DFB6"/>
<path fill-rule="evenodd" clip-rule="evenodd" d="M5.41414 27.1065V14.5572L1.33325 10.8662V18.3662C1.33325 18.3662 1.33325 21.2418 1.33325 23.8929C1.33325 24.5843 1.33325 25.2604 1.33325 25.8662C1.47303 26.1644 1.6723 26.5895 1.76017 26.777C1.78805 26.8364 1.80471 26.872 1.80471 26.872C1.84025 26.9509 1.87689 27.029 1.91465 27.1065H5.41414Z" fill="#05DFB6"/>
<path fill-rule="evenodd" clip-rule="evenodd" d="M2.36056 4.34565C1.40768 5.75117 0.931232 7.41486 0.931232 9.33669C0.931232 11.3159 1.40768 12.9079 2.36056 14.1126C3.31345 15.3173 4.46847 16.2209 5.82561 16.8233C7.15388 17.4256 8.88641 18.0423 11.0232 18.6734C12.6402 19.1323 13.9252 19.5483 14.8781 19.9212C15.8021 20.3227 16.5817 20.839 17.217 21.4701C17.8234 22.1011 18.1265 22.9186 18.1265 23.9226C18.1265 25.2707 17.5923 26.3321 16.524 27.1065C15.4267 27.9097 13.9829 28.3113 12.1926 28.3113C8.81422 28.3113 6.47531 26.748 5.17592 23.6214C5.17592 23.6214 2.83391 24.9896 1.33325 25.8662C1.47303 26.1644 1.6723 26.5895 1.76017 26.777C1.78805 26.8364 1.80471 26.872 1.80471 26.872C1.84025 26.9509 1.87689 27.029 1.91465 27.1065C2.5962 28.5053 3.63997 29.6814 5.04598 30.6347C5.34509 30.8375 5.65785 31.0236 5.98428 31.1931C7.64317 32.0542 9.65488 32.4848 12.0194 32.4848C14.0695 32.4848 15.932 32.1406 17.6068 31.4522C19.2527 30.7924 20.5665 29.7885 21.5483 28.4403C22.53 27.0922 23.0209 25.4715 23.0209 23.5784C23.0209 21.7713 22.5878 20.3084 21.7215 19.1897C20.8264 18.0997 19.758 17.2679 18.5164 16.6942C17.2747 16.1492 15.5999 15.5612 13.492 14.9301C11.7595 14.4138 10.3879 13.9405 9.37729 13.5102C8.36665 13.1087 7.52927 12.5206 6.86513 11.7462C6.17212 11.0004 5.82561 10.0395 5.82561 8.8634C5.82561 7.40051 6.35981 6.25315 7.4282 5.42131C8.46772 4.61815 9.94036 4.21657 11.8461 4.21657C13.9829 4.21657 15.7876 4.71855 17.2603 5.72249C18.7329 6.72644 19.8446 8.1463 20.5954 9.98209L23.0209 8.59734V6.86621L22.956 6.6691C22.8442 6.30435 22.7119 5.95226 22.5589 5.61284V5.37832H22.449C21.7674 3.97951 20.7237 2.80346 19.3177 1.85016C19.0186 1.64737 18.7058 1.46124 18.3794 1.29179C16.4838 0.430593 14.3494 0 11.9761 0C9.81042 0 7.90464 0.372892 6.25875 1.11868C4.58397 1.86447 3.28458 2.94012 2.36056 4.34565Z" fill="#05DFB6"/>
<path fill-rule="evenodd" clip-rule="evenodd" d="M22.0031 28.1392C22.956 26.7337 23.4324 25.07 23.4324 23.1482C23.4324 21.1689 22.956 19.577 22.0031 18.3722C21.0502 17.1675 19.8952 16.264 18.538 15.6616C17.2098 15.0592 15.4772 14.4425 13.3404 13.8115C11.7234 13.3525 10.4385 12.9366 9.48558 12.5637C8.56156 12.1621 7.78193 11.6458 7.14667 11.0148C6.54028 10.3837 6.23709 9.5662 6.23709 8.56226C6.23709 7.2141 6.77129 6.15279 7.83968 5.37832C8.93694 4.57516 10.3807 4.17358 12.171 4.17358C15.5494 4.17358 17.8883 5.73687 19.1877 8.86344L23.0209 6.86621L22.5589 5.61284C22.5234 5.53398 22.4867 5.45581 22.449 5.37832C21.7674 3.97951 20.7237 2.80346 19.3177 1.85016C19.0186 1.64737 18.7058 1.46124 18.3794 1.29179C16.7205 0.430619 14.7088 3.59039e-05 12.3442 3.59039e-05C10.2941 3.59039e-05 8.43162 0.344246 6.75685 1.03267C5.11095 1.6924 3.79712 2.69635 2.81535 4.0445C1.83359 5.39266 1.34271 7.01331 1.34271 8.90647C1.34271 10.7136 1.77584 12.1765 2.6421 13.2951C3.53724 14.3851 4.60563 15.217 5.84727 15.7907C7.08892 16.3357 8.76369 16.9237 10.8716 17.5547C12.6041 18.0711 13.9757 18.5443 14.9863 18.9746C15.997 19.3762 16.8344 19.9642 17.4985 20.7387C18.1915 21.4845 18.538 22.4454 18.538 23.6214C18.538 25.0843 18.0038 26.2317 16.9354 27.0635C15.8959 27.8667 14.4233 28.2683 12.5175 28.2683C10.3807 28.2683 8.576 27.7663 7.10335 26.7624C5.63071 25.7584 4.519 24.3385 3.76824 22.5028L1.33325 23.8929V25.8662C1.40421 26.0978 1.51347 26.304 1.62294 26.5105C1.66964 26.5986 1.71636 26.6867 1.76017 26.777L1.80471 26.872C1.84025 26.9509 1.87689 27.029 1.91465 27.1065C2.5962 28.5053 3.63997 29.6814 5.04598 30.6347C5.34509 30.8375 5.65785 31.0236 5.98428 31.1931C7.87986 32.0543 10.0143 32.4848 12.3876 32.4848C14.5532 32.4848 16.459 32.112 18.1049 31.3662C19.7797 30.6204 21.0791 29.5447 22.0031 28.1392Z" fill="#05DFB6"/>
</svg>
