<svg width="30" height="30" viewBox="0 0 30 30" fill="none" xmlns="http://www.w3.org/2000/svg">
<path fill-rule="evenodd" clip-rule="evenodd" d="M29.9517 13.7822C30.6812 23.0243 23.0245 30.681 13.782 29.9519C6.51069 29.3781 0.620316 23.487 0.047303 16.2161C-0.67919 6.97355 6.97675 -0.681646 16.2178 0.0482239C23.4883 0.622363 29.3779 6.51236 29.9521 13.7825" fill="#FF8E21"/>
<path fill-rule="evenodd" clip-rule="evenodd" d="M15.5196 19.7736C15.2949 19.734 12.8454 19.317 12.8083 19.3104L13.5411 15.1545C13.8284 15.2052 16.0994 15.629 16.2471 15.6621C18.4776 16.1554 18.6875 17.5772 18.5905 18.1277C18.4505 18.9213 17.5242 20.1271 15.5196 19.7736ZM14.5489 9.42434C14.867 9.48192 16.0407 9.69186 16.7416 9.81545C18.4917 10.124 18.867 11.5794 18.7853 12.0427C18.684 12.6174 18.1403 13.8877 16.0562 13.6374C15.8153 13.6075 13.9067 13.2643 13.8731 13.2565L14.5489 9.42434ZM20.1565 14.9514C21.3007 14.4391 22.1391 13.7828 22.3985 12.3118C22.8103 9.97623 20.6518 8.4655 19.2446 8.07388C19.0991 8.038 18.9526 8.00598 18.8054 7.97785L19.2028 5.74344L16.8726 5.33852L16.4847 7.57459L14.9258 7.29525L15.3227 5.06932L12.9422 4.65105L12.5487 6.8657C12.1287 6.80205 9.61984 6.3567 9.61984 6.3567L9.27108 8.33462C9.27108 8.33462 9.90563 8.44651 10.0865 8.48137C10.8731 8.61822 11.1404 9.17278 11.0802 9.51422L11.0599 9.63777L9.55582 18.1678C9.4918 18.4677 9.20505 18.6602 8.93109 18.6264C8.57142 18.579 8.0434 18.4743 8.0434 18.4743L7.19015 20.6358L10.043 21.1418L9.64596 23.3848L12.0194 23.8033L12.4111 21.5564L13.9708 21.8314L13.5708 24.0813L15.897 24.4915L16.2926 22.2538C16.2926 22.2538 16.4218 22.2721 16.4643 22.2796C19.1485 22.7529 21.7657 21.5951 22.2495 19.0603C22.648 16.9837 21.0561 15.4617 20.1565 14.9514Z" fill="white"/>
</svg>
