<svg xmlns="http://www.w3.org/2000/svg" viewBox="0 0 109.86 71.69"><defs><style>.cls-1{fill:#e99214;}.cls-2{fill:#090908;}</style></defs><g id="图层_2" data-name="图层 2"><g id="图层_1-2" data-name="图层 1"><path class="cls-1" d="M90.56,11.88h0L84.63,5.94h0L78.69,0h0L72.74,5.94h0l-5.93,5.94L55,0l0,0L37.11,17.81h0l-5.93,5.94-5.94-5.93L37.12,5.94,31.18,0,13.36,17.82h0L31.18,35.63h0L43.05,23.76,54.93,35.63h0L66.81,23.75h0L78.68,11.88l5.94,5.94L72.74,29.69l5.94,5.94L96.5,17.82ZM60.87,17.82l-5.94,5.93L49,17.82l5.94-5.94Z"/><path class="cls-2" d="M0,49H15.61v3.65H4v5.84H15v3.71H4v9H0Z"/><path class="cls-2" d="M19.86,55.09h3.81v2.7a4.92,4.92,0,0,1,4.76-3,4,4,0,0,1,1.4.22v3.62a11.41,11.41,0,0,0-1.78-.16c-2.82,0-4.32,1.43-4.32,4.79v8H19.86Z"/><path class="cls-2" d="M31.67,63.18c0-5,3.14-8.53,7.42-8.53a6,6,0,0,1,5.53,3v-2.6h3.8V71.24h-3.8V68.67a6,6,0,0,1-5.53,3C34.81,71.69,31.67,68.23,31.67,63.18Zm8.5,5c2.8,0,4.54-2.06,4.54-5s-1.74-5-4.54-5-4.53,2.06-4.53,5S37.38,68.16,40.17,68.16Z"/><path class="cls-2" d="M52.55,63.18c0-5,3.36-8.53,8.41-8.53a7.77,7.77,0,0,1,7,3.65L65,60.36a4.48,4.48,0,0,0-4-2.16c-2.72,0-4.53,1.94-4.53,5s1.81,5,4.53,5A4.5,4.5,0,0,0,65,66L67.94,68a7.73,7.73,0,0,1-7,3.65C55.91,71.69,52.55,68.16,52.55,63.18Z"/><path class="cls-2" d="M73,66.51v-8H70v-3.4h3V49h3.87v6.07h4.57v3.4H76.89V66c0,1.49.67,2,2.32,2a10.54,10.54,0,0,0,2.31-.26v3.27a10.65,10.65,0,0,1-3.14.45C74.73,71.5,73,69.94,73,66.51Z"/><path class="cls-2" d="M84.09,63.18c0-5,3.14-8.53,7.43-8.53a6,6,0,0,1,5.52,3v-2.6h3.81V71.24H97V68.67a6,6,0,0,1-5.52,3C87.23,71.69,84.09,68.23,84.09,63.18Zm8.51,5c2.79,0,4.53-2.06,4.53-5s-1.74-5-4.53-5-4.54,2.06-4.54,5S89.8,68.16,92.6,68.16Z"/><path class="cls-2" d="M106,49h3.87V71.24H106Z"/></g></g></svg>