<svg xmlns="http://www.w3.org/2000/svg" viewBox="0 0 228.69 34.02"><defs><style>.cls-1{fill:#f39800;}.cls-2{fill:#080908;}</style></defs><g id="图层_2" data-name="图层 2"><g id="图层_1-2" data-name="图层 1"><path class="cls-1" d="M73.7,11.34h0L68,5.67h0L62.36,0h0L56.69,5.67h0L51,11.34h0L45.35,5.67h0L39.68,0l-17,17h0L17,22.67,11.34,17,22.68,5.67,17,0,0,17H0L17,34h0L28.35,22.68,39.68,34h0L51,22.68h0L62.36,11.34,68,17,56.69,28.34,62.36,34l17-17ZM34,17l5.66-5.67L45.35,17l-5.67,5.67L34,17Z"/><path class="cls-2" d="M97.14,4.05h18.69V8.42H102v7h13.11v4.45H102V30.65H97.14Z"/><path class="cls-2" d="M120.93,11.31h4.56v3.23a5.89,5.89,0,0,1,5.7-3.57,4.87,4.87,0,0,1,1.67.26v4.33a15,15,0,0,0-2.13-.19c-3.38,0-5.17,1.71-5.17,5.74v9.54h-4.63Z"/><path class="cls-2" d="M135.06,21c0-6,3.76-10.22,8.89-10.22a7.19,7.19,0,0,1,6.62,3.64V11.31h4.55V30.65h-4.55V27.57A7.16,7.16,0,0,1,144,31.18C138.82,31.18,135.06,27,135.06,21Zm10.19,6c3.34,0,5.43-2.47,5.43-6s-2.09-6-5.43-6-5.44,2.47-5.44,6S141.9,27,145.25,27Z"/><path class="cls-2" d="M160.07,21c0-6,4-10.22,10.07-10.22a9.29,9.29,0,0,1,8.35,4.37L175,17.62A5.35,5.35,0,0,0,170.25,15c-3.27,0-5.43,2.32-5.43,6s2.16,6,5.43,6A5.38,5.38,0,0,0,175,24.34l3.49,2.47c-1.59,2.77-4.63,4.37-8.35,4.37C164.09,31.18,160.07,27,160.07,21Z"/><path class="cls-2" d="M184.58,25V15.37h-3.65V11.31h3.65V4.1h4.63v7.21h5.47v4.06h-5.47v9c0,1.78.8,2.43,2.77,2.43a13.13,13.13,0,0,0,2.78-.3v3.91A12.89,12.89,0,0,1,191,31C186.63,31,184.58,29.09,184.58,25Z"/><path class="cls-2" d="M197.84,21c0-6,3.76-10.22,8.89-10.22a7.17,7.17,0,0,1,6.61,3.64V11.31h4.56V30.65h-4.56V27.57a7.15,7.15,0,0,1-6.61,3.61C201.6,31.18,197.84,27,197.84,21ZM208,27c3.34,0,5.43-2.47,5.43-6s-2.09-6-5.43-6-5.43,2.47-5.43,6S204.68,27,208,27Z"/><path class="cls-2" d="M224.06,4.05h4.63v26.6h-4.63Z"/></g></g></svg>