<svg width="16" height="18" viewBox="0 0 16 18" fill="none" xmlns="http://www.w3.org/2000/svg">
<path d="M15.5905 8.30455C15.8139 8.52827 15.9395 8.83154 15.9395 9.14773C15.9395 9.46393 15.8139 9.76719 15.5905 9.99091L8.82914 16.7523C8.60542 16.9757 8.30215 17.1012 7.98596 17.1012C7.66976 17.1012 7.3665 16.9757 7.14278 16.7523L0.381413 9.99091C0.17039 9.76477 0.0554304 9.46552 0.0607729 9.15626C0.0661154 8.847 0.191341 8.5519 0.410048 8.33319C0.628766 8.11448 0.923865 7.98925 1.23312 7.98391C1.54238 7.97857 1.84163 8.09353 2.06777 8.30455L6.79278 13.0295L6.79278 1.19319C6.79278 0.876734 6.91849 0.573244 7.14225 0.34948C7.36602 0.125713 7.66951 3.8147e-06 7.98596 3.8147e-06C8.30241 3.8147e-06 8.6059 0.125713 8.82966 0.34948C9.05343 0.573244 9.17914 0.876734 9.17914 1.19319L9.17914 13.0295L13.9041 8.30455C14.1279 8.08111 14.4311 7.9556 14.7473 7.9556C15.0635 7.9556 15.3668 8.08111 15.5905 8.30455Z" fill="#686868"/>
</svg>
